<svg xmlns="http://www.w3.org/2000/svg"  viewBox="0 0 40 40" width="30px" height="30px"><path fill="#ffeea3" d="M20,32.5C9.248,32.5,0.5,26.893,0.5,20S9.248,7.5,20,7.5S39.5,13.107,39.5,20S30.752,32.5,20,32.5z"/><path fill="#66798f" d="M20,8c10.477,0,19,5.383,19,12s-8.523,12-19,12S1,26.617,1,20S9.523,8,20,8 M20,7 C8.917,7,0,12.807,0,20c0,7.193,8.917,13,20,13s20-5.807,20-13C40,12.893,31.083,7,20,7L20,7z"/><g><path fill="#839cb2" d="M20.004,27.474c-0.871-2.479-2.103-3.959-3.363-3.959c-0.462,0-1.231,0.205-1.789,1.402 c-1.576-2.067-2.976-2.401-3.713-2.401c-0.795,0-1.479,0.382-1.879,1.049c-0.383,0.639-0.47,1.468-0.268,2.35 C6.12,24.206,4.5,22.1,4.5,20.023c0-3.009,3.018-5.951,7.721-7.558c-1.104,2.03-0.729,3.491-0.355,4.238 c0.552,1.104,1.681,1.818,2.875,1.818c1.313,0,2.37-0.826,2.827-2.208l0.017-0.049l0.381-3.379l0.57,0.616h2.93l0.57-0.616 l0.382,3.385l0.019,0.054c0.487,1.377,1.559,2.199,2.866,2.199c1.184,0,2.301-0.706,2.847-1.798 c0.373-0.748,0.748-2.211-0.365-4.253c4.76,1.622,7.717,4.506,7.717,7.553c0,2.089-1.628,4.19-4.517,5.883 c0.23-0.894,0.165-1.727-0.207-2.362c-0.38-0.647-1.045-1.019-1.825-1.019c-1.209,0-2.562,0.869-3.792,2.414 c-0.556-1.209-1.325-1.416-1.785-1.416C22.104,23.523,20.89,24.971,20.004,27.474z"/><path fill="#66798f" d="M11.285,13.346c-0.564,1.657-0.212,2.889,0.133,3.58c0.635,1.273,1.939,2.095,3.322,2.095 c1.517,0,2.782-0.978,3.302-2.551l0.033-0.098l0.012-0.103L18.342,14h0.412H20h1.246h0.412l0.256,2.268l0.013,0.113l0.038,0.108 c0.552,1.562,1.831,2.532,3.337,2.532c1.372,0,2.664-0.814,3.294-2.074c0.526-1.054,0.555-2.298,0.113-3.595 C32.572,14.94,35,17.475,35,20.023c0,1.691-1.209,3.413-3.384,4.894c0.002-0.601-0.133-1.156-0.408-1.626 c-0.472-0.805-1.294-1.266-2.257-1.266c-1.223,0-2.508,0.716-3.713,2.045c-0.624-0.879-1.379-1.047-1.864-1.047 c-1.258,0-2.443,1.127-3.365,3.119c-0.913-1.997-2.099-3.127-3.369-3.127c-0.396,0-1.191,0.128-1.854,1.034 c-1.526-1.735-2.892-2.033-3.648-2.033c-0.974,0-1.815,0.471-2.307,1.292c-0.283,0.472-0.429,1.025-0.442,1.622 C6.234,23.434,5,21.68,5,20.023C5,17.458,7.434,14.923,11.285,13.346 M26.646,11.635c2.831,3.766,0.733,6.386-1.345,6.386 c-0.971,0-1.937-0.572-2.394-1.865l-0.498-4.412L21.246,13H20h-1.246l-1.163-1.256l-0.498,4.412 c-0.427,1.293-1.383,1.865-2.352,1.865c-2.076,0-4.218-2.62-1.386-6.386c-0.318,0.072-0.627,0.153-0.933,0.236 C7.452,13.471,4,16.562,4,20.023C4,22.75,6.479,25.265,9.937,27c-1.163-2.176-0.358-3.984,1.201-3.984 c1.064,0,2.48,0.842,3.862,2.984c0.346-1.331,0.949-1.986,1.64-1.986c1.135,0,2.505,1.765,3.36,5.202 c0.876-3.423,2.245-5.194,3.374-5.194c0.685,0,1.281,0.65,1.626,1.977c1.442-2.131,2.887-2.976,3.951-2.976 c1.541,0,2.281,1.773,1.049,3.976c3.508-1.722,6-4.171,6-6.977c0-3.427-3.389-6.489-8.281-8.101 C27.369,11.819,27.011,11.723,26.646,11.635L26.646,11.635z"/></g></svg>