<svg xmlns="http://www.w3.org/2000/svg"  viewBox="0 0 40 40" width="30px" height="30px"><path fill="#ffeea3" d="M32.793,17.096l3.76-2.337l-0.061-0.335c-0.007-0.038-0.486-2.695-0.776-5.969 c1.041,3.067,2.269,5.629,2.691,6.48l-3.513,4.314L32.793,17.096z"/><path fill="#f5c276" d="M36.67,12.339c0.469,1.105,0.884,1.987,1.148,2.529l-2.957,3.631l-1.276-1.307l2.943-1.829 l0.578-0.359l-0.122-0.669C36.98,14.315,36.842,13.547,36.67,12.339 M35,4c0,5.031,1,10.514,1,10.514L32,17l2.929,3L39,15 C39,15,36.104,9.39,35,4L35,4z"/><path fill="#ffeea3" d="M1.593,14.936c0.423-0.851,1.65-3.414,2.691-6.481c-0.29,3.275-0.77,5.932-0.776,5.97l-0.061,0.335 l3.76,2.337L5.105,19.25L1.593,14.936z"/><path fill="#f5c276" d="M3.33,12.339c-0.172,1.208-0.31,1.976-0.314,1.996l-0.122,0.67l0.578,0.359l2.943,1.829 l-1.276,1.307l-2.957-3.631C2.446,14.326,2.861,13.444,3.33,12.339 M5,4C3.896,9.39,1,15,1,15l4.071,5L8,17l-4-2.486 C4,14.514,5,9.031,5,4L5,4z"/><path fill="#ffeea3" d="M33.5 16.5A2 2 0 1 0 33.5 20.5A2 2 0 1 0 33.5 16.5Z"/><path fill="#f5c276" d="M33.5,17c0.827,0,1.5,0.673,1.5,1.5S34.327,20,33.5,20S32,19.327,32,18.5S32.673,17,33.5,17 M33.5,16c-1.381,0-2.5,1.119-2.5,2.5s1.119,2.5,2.5,2.5s2.5-1.119,2.5-2.5S34.881,16,33.5,16L33.5,16z"/><path fill="#ffeea3" d="M6.5 16.5A2 2 0 1 0 6.5 20.5A2 2 0 1 0 6.5 16.5Z"/><path fill="#f5c276" d="M6.5,17C7.327,17,8,17.673,8,18.5S7.327,20,6.5,20S5,19.327,5,18.5S5.673,17,6.5,17 M6.5,16 C5.119,16,4,17.119,4,18.5S5.119,21,6.5,21S9,19.881,9,18.5S7.881,16,6.5,16L6.5,16z"/><path fill="#f78f8f" d="M20,37.918c-7.04,0-13.071-12.746-13.071-23.181C6.929,7.759,12.792,2.082,20,2.082 s13.071,5.678,13.071,12.656C33.071,25.172,27.04,37.918,20,37.918z"/><path fill="#c74343" d="M20,2.582c6.932,0,12.571,5.453,12.571,12.156c0,10.21-5.801,22.681-12.571,22.681 S7.429,24.947,7.429,14.738C7.429,8.035,13.068,2.582,20,2.582 M20,1.582c-7.495,0-13.571,5.89-13.571,13.156 c0,10.568,6.076,23.681,13.571,23.681s13.571-13.113,13.571-23.681C33.571,7.472,27.495,1.582,20,1.582L20,1.582z"/><g><path fill="#ffeea3" d="M20,38C12.999,38,7,25.118,7,14.571C7,7.64,12.832,2,20,2s13,5.64,13,12.571 C33,25.118,27.001,38,20,38z"/><path fill="#c74343" d="M20,3c6.617,0,12,5.191,12,11.571C32,25.471,25.832,37,20,37S8,25.471,8,14.571 C8,8.191,13.383,3,20,3 M20,1C12.268,1,6,7.076,6,14.571C6,25.473,12.268,39,20,39s14-13.527,14-24.429C34,7.076,27.732,1,20,1 L20,1z"/></g><g><path fill="#f78f8f" d="M20,19.424l-6.988,3.993l-6.097-3.81C6.64,17.873,6.5,16.179,6.5,14.571 C6.5,7.364,12.556,1.5,20,1.5s13.5,5.864,13.5,13.071c0,1.608-0.14,3.301-0.415,5.037l-6.097,3.81L20,19.424z"/><path fill="#c74343" d="M20,2c7.168,0,13,5.64,13,12.571c0,1.513-0.126,3.103-0.374,4.733l-5.649,3.53l-6.481-3.703 L20,18.848l-0.496,0.284l-6.481,3.703l-5.649-3.53C7.126,17.675,7,16.084,7,14.571C7,7.64,12.832,2,20,2 M20,1 C12.268,1,6,7.076,6,14.571c0,1.735,0.16,3.537,0.458,5.34L13,24l7-4l7,4l6.542-4.089C33.84,18.108,34,16.307,34,14.571 C34,7.076,27.732,1,20,1L20,1z"/></g><path fill="#ba9b48" d="M16.65,32.061l-0.66-0.751C16.005,31.296,17.486,30,20,30c2.466,0,3.939,1.248,4.001,1.301	l-0.653,0.758C23.336,32.048,22.082,31,20,31C17.915,31,16.663,32.05,16.65,32.061z"/><g><path fill="#e8d47b" d="M20,19.424l-6.988,3.993l-4.578-2.861l-1.528-1.018l-0.032-0.219c-0.151-1-0.254-2.074-0.313-3.28 l-0.034-0.672l0.653,0.162C7.995,15.731,15.289,17.5,20,17.5s12.005-1.769,12.821-1.971l0.653-0.162L33.44,16.04 c-0.06,1.206-0.162,2.279-0.313,3.28l-0.032,0.219l-1.516,1.01l-4.591,2.869L20,19.424z"/><path fill="#c74343" d="M32.942,16.014c-0.053,1.054-0.143,2.128-0.309,3.231l-1.331,0.887l-4.325,2.703l-6.481-3.703 L20,18.848l-0.496,0.284l-6.481,3.703l-4.325-2.703l-1.331-0.887c-0.166-1.103-0.256-2.176-0.309-3.231 C7.657,16.163,15.169,18,20,18C24.831,18,32.343,16.163,32.942,16.014 M34.008,14.72l-1.307,0.324C32.379,15.124,24.754,17,20,17 c-4.749,0-12.379-1.876-12.701-1.956L5.992,14.72l0.067,1.344c0.061,1.222,0.165,2.311,0.319,3.33l0.066,0.438l0.368,0.245 l1.331,0.887l4.349,2.719L13,24l0.519-0.297L20,20v0l6.481,3.703L27,24l0.507-0.317l4.325-2.703l1.355-0.903l0.368-0.245 l0.066-0.438c0.154-1.019,0.258-2.108,0.319-3.33L34.008,14.72L34.008,14.72z"/></g><g><path fill="#a16a4a" d="M13.7,19.5c-1.322,0-2.463-1.065-3.315-2.232c1.463,0.297,3.272,0.63,5.086,0.875 C15.291,18.833,14.466,19.5,13.7,19.5z"/><path fill="#704e34" d="M11.703,18.035c0.928,0.174,1.935,0.348,2.958,0.498C14.398,18.803,14.028,19,13.7,19 C12.976,19,12.299,18.602,11.703,18.035 M9.303,16.53C10.067,17.817,11.612,20,13.7,20c1.083,0,2.186-0.979,2.3-2 c0.003-0.109-0.012-0.193-0.014-0.294C13.536,17.397,11.038,16.905,9.303,16.53L9.303,16.53z"/><g><path fill="#a16a4a" d="M26.107,19.5c-0.736,0-1.399-0.691-1.573-1.358c1.777-0.24,3.548-0.563,4.99-0.855 C28.729,18.277,27.47,19.5,26.107,19.5z"/><path fill="#704e34" d="M28.091,18.074C27.451,18.626,26.764,19,26.107,19c-0.279,0-0.59-0.193-0.812-0.46 C26.258,18.399,27.207,18.237,28.091,18.074 M30.68,16.534c-1.736,0.375-4.229,0.865-6.672,1.173C24.005,17.804,24,17.896,24,18 c0.11,0.989,1.057,2,2.107,2C28.124,20,29.867,17.809,30.68,16.534L30.68,16.534z"/></g></g></svg>