<svg xmlns="http://www.w3.org/2000/svg"  viewBox="0 0 40 40" width="30px" height="30px"><path fill="#ffeea3" d="M20,37.5c-9.649,0-17.5-7.851-17.5-17.5S10.351,2.5,20,2.5S37.5,10.351,37.5,20S29.649,37.5,20,37.5 z"/><path fill="#f5c276" d="M20,3c9.374,0,17,7.626,17,17s-7.626,17-17,17S3,29.374,3,20S10.626,3,20,3 M20,2 C10.053,2,2,10.053,2,20s8.053,18,18,18s18-8.053,18-18S29.947,2,20,2L20,2z"/><path fill="#f5c276" d="M28.146,3.961l-6.813,10.706L28,13.333l-8,9.333l6.667-1.333L12.654,36.424 c0.325,0.145,0.657,0.275,0.992,0.402l13.754-14.812l2.106-2.268l-3.035,0.607l-3.826,0.765l6.115-7.134l1.885-2.2l-2.841,0.568 l-4.369,0.874l5.591-8.786C28.737,4.273,28.445,4.113,28.146,3.961z"/><path fill="#f5c276" d="M11.854,36.039l6.813-10.706L12,26.667l8-9.333l-6.667,1.333L27.346,3.576 c-0.325-0.145-0.657-0.275-0.992-0.402L12.601,17.986l-2.106,2.268l3.035-0.607l3.826-0.765l-6.115,7.134l-1.885,2.2l2.841-0.568 l4.369-0.874l-5.591,8.786C11.263,35.727,11.555,35.887,11.854,36.039z"/><g><path fill="#f78f8f" d="M20,34.5c-7.995,0-14.5-6.505-14.5-14.5S12.005,5.5,20,5.5S34.5,12.005,34.5,20S27.995,34.5,20,34.5 z"/><path fill="#c74343" d="M20,6c7.72,0,14,6.28,14,14s-6.28,14-14,14S6,27.72,6,20S12.28,6,20,6 M20,5C11.716,5,5,11.716,5,20 s6.716,15,15,15s15-6.716,15-15S28.284,5,20,5L20,5z"/></g><path fill="#ffeea3" d="M30.667 0L13 19 20 18 12 27 18 26 9.333 40 27 21 20 23 28 13 22 14z"/></svg>