<svg xmlns="http://www.w3.org/2000/svg"  viewBox="0 0 40 40" width="30px" height="30px"><path fill="#99c99e" d="M20,38.5C9.799,38.5,1.5,30.201,1.5,20S9.799,1.5,20,1.5S38.5,9.799,38.5,20S30.201,38.5,20,38.5z"/><path fill="#5e9c76" d="M20,2c9.925,0,18,8.075,18,18s-8.075,18-18,18S2,29.925,2,20S10.075,2,20,2 M20,1 C9.55,1,1,9.55,1,20s8.55,19,19,19s19-8.55,19-19S30.45,1,20,1L20,1z"/><path fill="#fff" d="M20,35.5c-8.547,0-15.5-6.953-15.5-15.5S11.453,4.5,20,4.5S35.5,11.453,35.5,20S28.547,35.5,20,35.5 z"/><path fill="#5e9c76" d="M20,5c8.25,0,15,6.75,15,15s-6.75,15-15,15S5,28.25,5,20S11.75,5,20,5 M20,4C11.178,4,4,11.178,4,20 s7.178,16,16,16s16-7.178,16-16S28.822,4,20,4L20,4z"/><path fill="#99c99e" d="M20,27.5c-4.136,0-7.5-3.364-7.5-7.5s3.364-7.5,7.5-7.5s7.5,3.364,7.5,7.5S24.136,27.5,20,27.5z M20,15.5c-2.481,0-4.5,2.019-4.5,4.5s2.019,4.5,4.5,4.5s4.5-2.019,4.5-4.5S22.481,15.5,20,15.5z"/><path fill="#5e9c76" d="M20,13c3.86,0,7,3.14,7,7s-3.14,7-7,7s-7-3.14-7-7S16.14,13,20,13 M20,25c2.757,0,5-2.243,5-5 s-2.243-5-5-5s-5,2.243-5,5S17.243,25,20,25 M20,12c-4.4,0-8,3.6-8,8s3.6,8,8,8s8-3.6,8-8S24.4,12,20,12L20,12z M20,24 c-2.2,0-4-1.8-4-4c0-2.2,1.8-4,4-4s4,1.8,4,4C24,22.2,22.2,24,20,24L20,24z"/><g><path fill="#99c99e" d="M13.5 9.5H26.5V12.5H13.5z"/><path fill="#5e9c76" d="M26,10v2H14v-2H26 M27,9H13v4h14V9L27,9z"/></g><g><path fill="#99c99e" d="M13.5 27.5H26.5V30.5H13.5z"/><path fill="#5e9c76" d="M26,28v2H14v-2H26 M27,27H13v4h14V27L27,27z"/></g></svg>