<svg xmlns="http://www.w3.org/2000/svg"  viewBox="0 0 40 40" width="30px" height="30px"><path fill="#ffeea3" d="M20,38.5c-5.648,0-11.854-6.005-13.312-7.502c2.843-3.212,2.829-8.364,2.813-13.806L9.5,16 c0-5.691,4.809-10.5,10.5-10.5S30.5,10.309,30.5,16l-0.001,0.792c-0.006,5.648-0.012,10.995,2.813,14.205 C31.854,32.494,25.649,38.5,20,38.5z"/><path fill="#f5c276" d="M20,6c5.421,0,10,4.579,10,10l-0.001,0.794c-0.006,5.545-0.012,10.805,2.638,14.175 C30.784,32.814,25.12,38,20,38c-5.118,0-10.781-5.183-12.636-7.03c2.667-3.36,2.653-8.432,2.638-13.779L10,16 C10,10.579,14.579,6,20,6 M20,5C14.004,5,9,10.004,9,16s0.248,11.752-3,15c0,0,7.278,8,14,8s14-8,14-8c-3.153-3.153-3-9.004-3-15 S25.996,5,20,5L20,5z"/><path fill="#f5c276" d="M20,5C14.004,5,9,10.004,9,16s0.248,11.752-3,15c0,0,7.278,8,14,8V5z"/><path fill="#c29653" d="M21 9L20 13 19 9 19 1 21 1z"/><path fill="#f5c276" d="M20,39c6.722,0,14-8,14-8c-3.153-3.153-3-8.004-3-14h-1c0,8.199-6.134,13.851-10,21V39z"/><path fill="#839cb2" d="M23.985,23.5c-0.701-0.01-1.766-0.698-2.356-1.14c0.946-1.661,3.256-2.893,4.575-3.489 C25.406,21.29,24.438,23.34,23.985,23.5z"/><path fill="#66798f" d="M25.327,19.86c-0.556,1.503-1.139,2.739-1.497,3.122c-0.414-0.078-1.008-0.404-1.521-0.75 C23.012,21.283,24.223,20.46,25.327,19.86 M27,18c0,0-4.775,1.7-6,4.5c0,0,1.775,1.5,3,1.5S27,18,27,18L27,18z"/><g><path fill="#839cb2" d="M16.015,23.5c-0.453-0.16-1.421-2.208-2.219-4.628c1.319,0.597,3.63,1.831,4.575,3.489 C17.773,22.811,16.721,23.491,16.015,23.5z"/><path fill="#66798f" d="M14.673,19.86c1.104,0.6,2.315,1.422,3.017,2.373c-0.513,0.346-1.107,0.672-1.521,0.75 C15.812,22.6,15.229,21.363,14.673,19.86 M13,18c0,0,1.775,6,3,6c1.225,0,3-1.5,3-1.5C17.775,19.7,13,18,13,18L13,18z"/></g><path fill="#c29653" d="M20,6V5C14.004,5,9,10.004,9,16c0,0.334,0.001,0.668,0.002,1H9c0,5.996,0.153,10.847-3,14	c0,0,7.278,8,14,8v-1c-3.866-7.149-10-12.801-10-21h0.002L10,16C10,10.579,14.579,6,20,6z"/></svg>