<svg xmlns="http://www.w3.org/2000/svg"  viewBox="0 0 40 40" width="30px" height="30px"><path fill="#f78f8f" d="M0.679 12.839L6.877 6.5 33.123 6.5 39.321 12.839 20 35.234z"/><path fill="#c74343" d="M32.913,7l5.73,5.86L20,34.469L1.357,12.86L7.087,7H32.913 M33.333,6H6.667L0,12.818L20,36 l20-23.182L33.333,6L33.333,6z"/><g><path fill="#ffeea3" d="M28.576,9.266c-0.499-0.796-1.398-1.555-1.848-1.846L25.307,6.5h4.932l-0.19,0.643 c-0.013,0.042-0.031,0.13-0.057,0.247c-0.104,0.476-0.276,1.272-0.54,1.825l-0.392,0.822L28.576,9.266z"/><path fill="#c74343" d="M29.569,7C29.508,7.203,29.312,8.344,29,9c-0.532-0.85-1.469-1.656-2-2H29.569 M29.569,6H27h-3.386 l2.843,1.84c0.444,0.287,1.264,1.002,1.696,1.691l0.967,1.544l0.783-1.645c0.266-0.558,0.438-1.291,0.577-1.934 c0.021-0.098,0.037-0.174,0.049-0.218l0.338-1.259L29.569,6L29.569,6z"/><path fill="#ffeea3" d="M32.5,19.288C32.496,19.19,32.196,14.5,20.777,14.5c-5.403,0-8.384-0.839-9.109-2.565 c-0.572-1.36,0.529-2.661,0.751-2.903c0.254-0.37,1.944-2.535,6.709-2.535L19.404,6.5c5.215,0,8.638,3.027,9.055,6H34.5V7.897 l4.825,4.94L32.5,20.61V19.288z"/><path fill="#c74343" d="M19.129,6.998c0.088,0,0.177,0.001,0.267,0.002c5.093,0,8.518,3.019,8.604,6h7V9.125l3.644,3.731 L33,19.283c0,0,0-5.283-12.223-5.283c-12.516,0-7.964-4.656-7.964-4.656S14.251,6.998,19.129,6.998 M19.129,5.998L19.129,5.998 c-4.823,0-6.705,2.179-7.092,2.711c-0.607,0.656-1.408,2.047-0.83,3.42C12.031,14.088,15.072,15,20.777,15 C31.66,15,31.998,19.264,32,19.307v2.654l1.751-2.018l5.644-6.427l0.611-0.696l-0.647-0.663l-3.644-3.731L34,6.67v2.455V12h-5.127 c-0.701-3.044-4.228-6-9.477-6L19.129,5.998L19.129,5.998L19.129,5.998z"/><g><path fill="#ffeea3" d="M11.877,25.829l0.013-0.012l-6.46-7.462l0.751-0.66l0.105,0.121 c0.231,0.268,0.47,0.545,0.944,0.714c1.417,0.372,3.042,0.801,11.336,1.37c6.804,0.467,8.041,0.979,8.569,1.198 c0.35,0.136,1.556,1.015,1.353,2.113c-0.291,1.563-3.123,2.291-8.913,2.291h-0.262l-0.149-0.215 c-0.676-0.973-1.935-2.785-3.707-2.785c-1.233,0-2.274,0.43-2.719,1.121c-0.298,0.464-0.311,1.028-0.038,1.63 c1.307,1.459,2.714,1.763,2.728,1.766c1.793,0.46,2.653,0.483,3.912,0.483l0.618,0c3.459,0,6.166-0.813,6.192-0.822l1.651-0.504 l-7.801,9.06L11.877,25.829z"/><path fill="#c74343" d="M5.808,18.027C6.075,18.325,6.38,18.757,7.063,19c1.499,0.396,3.082,0.822,11.47,1.398 c7.185,0.493,8.092,1.04,8.499,1.196C27.404,21.737,31.506,25,19.575,25c-0.842-1.212-2.165-3-4.118-3 c-2.473,0-4.096,1.525-3.207,3.469L5.808,18.027 M12.255,25.502c1.451,1.671,3.072,2.005,3.072,2.005 c1.804,0.464,2.683,0.494,4.01,0.494c0.196,0,0.401-0.001,0.621-0.001c3.583,0,6.339-0.844,6.339-0.844L20,34.469L12.255,25.502 M6.553,17.361l-1.501,1.321l6.442,7.441l0.018,0.021l-0.014,0.012l7.745,8.967L20.001,36l0.757-0.879l6.297-7.313l2.249-2.612 L26.005,26.2c-0.026,0.008-2.671,0.8-6.047,0.8l-0.33,0l-0.291,0c-1.254,0-2.048-0.021-3.761-0.462 c-0.05-0.012-1.292-0.303-2.45-1.562c-0.175-0.423-0.164-0.778,0.034-1.085C13.512,23.341,14.393,23,15.457,23 c1.328,0,2.369,1.236,3.297,2.571L19.053,26h0.523c6.157,0,9.058-0.833,9.404-2.7c0.264-1.42-1.178-2.482-1.589-2.64l-0.063-0.026 c-0.551-0.228-1.842-0.762-8.726-1.234c-8.206-0.563-9.832-0.984-11.238-1.355c-0.326-0.125-0.491-0.316-0.697-0.555L6.553,17.361 L6.553,17.361z"/></g><g><path fill="#ffeea3" d="M5.454,18.381c-0.063-0.063-0.123-0.132-0.179-0.206l-4.608-5.351L6.788,6.5h6.162l-1.71,0.938 C11.184,7.47,5.553,10.61,5.5,15.006c-0.008,0.489,0.077,1.887,0.556,2.543l0.131,0.152L5.454,18.381z"/><path fill="#c74343" d="M11,7c0,0-5.943,3.252-6,8c0,0-0.035,1.926,0.664,2.861l-4.321-5.017L7,7H11 M5.664,17.861 l0.143,0.167C5.757,17.977,5.709,17.921,5.664,17.861 M11,6H7H6.576L6.281,6.305l-5.656,5.844l-0.635,0.656l0.596,0.692 l4.301,4.994c0.067,0.087,0.139,0.169,0.214,0.244l1.465-1.36l-0.117-0.136C6.124,16.774,5.988,15.646,6,15.018 c0.049-4.105,5.427-7.112,5.481-7.141l3.409-1.876L11,6L11,6z"/></g></g></svg>