<svg xmlns="http://www.w3.org/2000/svg"  viewBox="0 0 40 40" width="30px" height="30px"><path fill="#ffeea3" d="M5.026,18.5c-0.431,0-0.768-0.177-1.001-0.527L2.973,16.5h7.001c0.449,0,0.776,0.164,1.001,0.501 l1.06,1.499H5.026z"/><path fill="#f5c276" d="M9.974,17c0.351,0,0.493,0.141,0.6,0.301L11.068,18H5.026c-0.264,0-0.444-0.094-0.603-0.332 L3.945,17H9.974 M9.974,16H2l1.609,2.25C3.943,18.75,4.443,19,5.026,19H13l-1.609-2.276C11.057,16.224,10.557,16,9.974,16L9.974,16 z"/><path fill="#ffeea3" d="M27.966,18.5l1.052-1.487c0.232-0.349,0.56-0.513,1.009-0.513h7.001l-1.043,1.459 c-0.243,0.364-0.58,0.541-1.011,0.541H27.966z"/><path fill="#f5c276" d="M36.056,17l-0.497,0.695C35.418,17.906,35.238,18,34.974,18h-6.042l0.51-0.721 C29.533,17.141,29.675,17,30.026,17H36.056 M38,16h-7.974c-0.583,0-1.083,0.224-1.417,0.724L27,19h7.974 c0.583,0,1.083-0.25,1.417-0.75L38,16L38,16z"/><g><path fill="#ffeea3" d="M20.026,23.988l-0.087,0.154l-0.404,0.609L16.519,30l-3.555-6.126 c-0.463-0.917-1.253-1.374-2.401-1.374H8c-0.431,0-0.768-0.178-1.001-0.528L5.963,20.5h5.104c1.453,0,2.518,0.602,3.254,1.839 l2.161,3.645L20,19.988l3.519,5.996l2.161-3.646c0.736-1.237,1.801-1.838,3.254-1.838h5.104l-1.029,1.462 C32.768,22.322,32.431,22.5,32,22.5h-2.563c-1.148,0-1.938,0.458-2.415,1.399L23.481,30L20.026,23.988z"/><path fill="#f5c276" d="M20,20.976l2.658,4.53l0.858,1.462l0.865-1.458l1.728-2.915C26.748,21.522,27.672,21,28.934,21h4.14 l-0.489,0.695C32.444,21.906,32.264,22,32,22h-2.563c-1.325,0-2.283,0.554-2.847,1.646L23.483,29l-2.585-4.499l-0.878-1.527 L20,23.011l-0.021-0.037l-0.878,1.527L16.517,29l-3.107-5.354C12.845,22.554,11.888,22,10.562,22H8 c-0.264,0-0.444-0.094-0.599-0.326L6.926,21h4.14c1.262,0,2.185,0.522,2.823,1.593l1.729,2.917l0.865,1.458l0.858-1.462L20,20.976 M20,19l-3.521,6l-1.729-2.917C13.925,20.697,12.68,20,11.066,20H5l1.583,2.25C6.917,22.75,7.417,23,8,23h2.562 c0.913,0,1.556,0.31,1.969,1.125L16.521,31l3.448-6L20,25.056L20.031,25l3.448,6l3.99-6.875C27.881,23.31,28.525,23,29.437,23H32 c0.583,0,1.083-0.25,1.417-0.75L35,20h-6.066c-1.614,0-2.858,0.697-3.684,2.083L23.521,25L20,19L20,19z"/></g><g><path fill="#ffeea3" d="M20,16.003l-3.492,6.022l-3.672-5.96c-0.62-1.023-1.515-1.566-2.586-1.566H3 c-0.431,0-0.768-0.178-1.001-0.528L0.963,12.5h9.634c1.959,0,3.194,1.571,3.756,2.507l1.97,3.175L20,11.98l3.678,6.202l1.966-3.169 c0.565-0.943,1.801-2.514,3.76-2.514h9.634l-1.029,1.462C37.768,14.322,37.431,14.5,37,14.5h-7.25 c-1.071,0-1.966,0.542-2.588,1.569l-3.67,5.957L20,16.003z"/><path fill="#f5c276" d="M20,12.961l2.827,4.768l0.841,1.418l0.869-1.401l1.539-2.481C26.584,14.419,27.691,13,29.403,13 h8.671l-0.489,0.695C37.444,13.906,37.264,14,37,14h-7.25c-1.237,0-2.308,0.643-3.012,1.803l-3.233,5.248l-2.64-4.553L20,15.007 l-0.865,1.492l-2.64,4.553l-3.229-5.242C12.558,14.643,11.487,14,10.25,14H3c-0.264,0-0.444-0.094-0.599-0.325L1.926,13h8.67 c1.713,0,2.82,1.419,3.335,2.277l1.531,2.469l0.869,1.401l0.841-1.418L20,12.961 M20,11l-3.688,6.219l-1.531-2.469 C13.844,13.188,12.389,12,10.597,12H0l1.583,2.25C1.917,14.75,2.417,15,3,15h7.25c0.913,0,1.646,0.479,2.161,1.328L16.521,23L20,17 l3.479,6l4.11-6.672C28.104,15.479,28.837,15,29.75,15H37c0.583,0,1.083-0.25,1.417-0.75L40,12H29.403 c-1.792,0-3.247,1.188-4.185,2.75l-1.531,2.469L20,11L20,11z"/></g></svg>